<?xml version="1.0" encoding="UTF-8" standalone="no"?>
<!-- Created with Inkscape (http://www.inkscape.org/) -->

<svg
   xmlns:dc="http://purl.org/dc/elements/1.1/"
   xmlns:cc="http://creativecommons.org/ns#"
   xmlns:rdf="http://www.w3.org/1999/02/22-rdf-syntax-ns#"
   xmlns:svg="http://www.w3.org/2000/svg"
   xmlns="http://www.w3.org/2000/svg"
   xmlns:sodipodi="http://sodipodi.sourceforge.net/DTD/sodipodi-0.dtd"
   xmlns:inkscape="http://www.inkscape.org/namespaces/inkscape"
   id="svg2"
   version="1.1"
   inkscape:version="0.48.4 r9939"
   width="482.94174"
   height="112.46425"
   xml:space="preserve"
   sodipodi:docname="logo-tag centro-blanco.svg"
   inkscape:export-filename="/home/ignacio/Documentos/Owncloud/EMPRESA/INTERNO/DISEÑO/Identidad Corporativa/Logo/Logo - Tag centro/logo-original.png"
   inkscape:export-xdpi="90"
   inkscape:export-ydpi="90"><metadata
     id="metadata8"><rdf:RDF><cc:Work
         rdf:about=""><dc:format>image/svg+xml</dc:format><dc:type
           rdf:resource="http://purl.org/dc/dcmitype/StillImage" /><dc:title></dc:title></cc:Work></rdf:RDF></metadata><defs
     id="defs6"><clipPath
       clipPathUnits="userSpaceOnUse"
       id="clipPath16"><path
         d="m 0,841.89 595.28,0 L 595.28,0 0,0 0,841.89 z"
         id="path18"
         inkscape:connector-curvature="0" /></clipPath></defs><sodipodi:namedview
     pagecolor="#ffffff"
     bordercolor="#666666"
     borderopacity="1"
     objecttolerance="10"
     gridtolerance="10"
     guidetolerance="10"
     inkscape:pageopacity="0"
     inkscape:pageshadow="2"
     inkscape:window-width="1855"
     inkscape:window-height="1176"
     id="namedview4"
     showgrid="false"
     inkscape:zoom="2.5371819"
     inkscape:cx="204.28695"
     inkscape:cy="16.368547"
     inkscape:window-x="65"
     inkscape:window-y="24"
     inkscape:window-maximized="1"
     inkscape:current-layer="g10"
     fit-margin-top="0"
     fit-margin-left="0"
     fit-margin-right="0"
     fit-margin-bottom="0" /><g
     id="g10"
     inkscape:groupmode="layer"
     inkscape:label="logo e instrucciones"
     transform="matrix(1.25,0,0,-1.25,-51.321,999.42725)"><g
       id="g3021"
       style="fill:#ffffff"
       inkscape:export-filename="/home/ignacio/Documentos/Owncloud/EMPRESA/INTERNO/DISEÑO/Identidad Corporativa/Logo/Logo - Tag centro/logo-tag centro-blanco.png"
       inkscape:export-xdpi="90"
       inkscape:export-ydpi="90"><g
         transform="translate(102.06155,0)"
         id="g3055"
         style="fill:#ffffff"><g
           id="g20"
           transform="translate(42.8667,712.1284)"
           style="fill:#ffffff"><path
             d="m 0,0 c 0,0 1.513,-1.663 3.986,-1.663 1.855,0 3.326,1.151 3.326,2.942 0,4.242 -7.632,3.07 -7.632,7.738 0,1.983 1.769,3.858 4.477,3.858 2.43,0 3.794,-1.385 3.794,-1.385 L 7.439,10.701 c 0,0 -1.279,1.279 -3.261,1.279 -2.217,0 -3.539,-1.492 -3.539,-2.942 0,-3.943 7.632,-2.728 7.632,-7.716 0,-2.154 -1.663,-3.88 -4.328,-3.88 -2.941,0 -4.561,1.854 -4.561,1.854 L 0,0 z"
             style="fill:#ffffff;fill-opacity:1;fill-rule:nonzero;stroke:none"
             id="path22"
             inkscape:connector-curvature="0" /></g><g
           id="g24"
           transform="translate(54.4399,724.7476)"
           style="fill:#ffffff"><path
             d="m 0,0 0.917,0 0,-9.763 c 0,-2.814 1.833,-4.54 4.647,-4.54 2.813,0 4.668,1.726 4.668,4.583 l 0,9.72 0.917,0 0,-9.805 c 0,-3.283 -2.281,-5.372 -5.564,-5.372 C 2.302,-15.177 0,-13.088 0,-9.805 L 0,0 z"
             style="fill:#ffffff;fill-opacity:1;fill-rule:nonzero;stroke:none"
             id="path26"
             inkscape:connector-curvature="0" /></g><g
           id="g28"
           transform="translate(74.9448,717.2871)"
           style="fill:#ffffff"><path
             d="M 0,0 C 1.961,0 3.197,1.407 3.197,3.432 3.197,4.753 2.537,5.819 1.449,6.31 1.023,6.501 0.554,6.608 -0.64,6.608 l -3.41,0 L -4.05,0 0,0 z m -4.967,7.46 4.37,0 C 0.789,7.46 1.492,7.312 2.089,7.013 3.325,6.395 4.157,5.137 4.157,3.432 4.157,1.3 2.92,-0.299 1.172,-0.682 l 0,-0.043 c 0,0 0.149,-0.171 0.341,-0.533 l 3.347,-6.203 -1.087,0 -3.539,6.608 -4.284,0 0,-6.608 -0.917,0 0,14.921 z"
             style="fill:#ffffff;fill-opacity:1;fill-rule:nonzero;stroke:none"
             id="path30"
             inkscape:connector-curvature="0" /></g><g
           id="g32"
           transform="translate(83.2134,724.7476)"
           style="fill:#ffffff"><path
             d="m 0,0 7.525,0 0,-0.853 -6.608,0 0,-6.224 5.712,0 0,-0.853 -5.712,0 0,-6.991 -0.917,0 L 0,0 z"
             style="fill:#ffffff;fill-opacity:1;fill-rule:nonzero;stroke:none"
             id="path34"
             inkscape:connector-curvature="0" /></g><path
           d="m 94.041,724.748 0.917,0 0,-14.921 -0.917,0 0,14.921 z"
           style="fill:#ffffff;fill-opacity:1;fill-rule:nonzero;stroke:none"
           id="path36"
           inkscape:connector-curvature="0" /><g
           id="g38"
           transform="translate(99.561,724.7476)"
           style="fill:#ffffff"><path
             d="m 0,0 0.853,0 8.505,-11.703 c 0.49,-0.682 1.215,-1.876 1.215,-1.876 l 0.043,0 c 0,0 -0.107,1.13 -0.107,1.876 l 0,11.703 0.917,0 0,-14.921 -0.853,0 -8.505,11.702 c -0.491,0.682 -1.215,1.876 -1.215,1.876 l -0.043,0 c 0,0 0.107,-1.13 0.107,-1.876 l 0,-11.702 -0.917,0 L 0,0 z"
             style="fill:#ffffff;fill-opacity:1;fill-rule:nonzero;stroke:none"
             id="path40"
             inkscape:connector-curvature="0" /></g><g
           id="g42"
           transform="translate(122.0269,725.0034)"
           style="fill:#ffffff"><path
             d="M 0,0 C 3.368,0 5.201,-1.684 5.201,-1.684 L 4.647,-2.387 c 0,0 -1.791,1.513 -4.647,1.513 -3.751,0 -6.48,-2.984 -6.48,-6.842 0,-3.88 2.665,-6.843 6.352,-6.843 3.198,0 5.116,2.451 5.116,2.451 l 0,2.878 -2.664,0 0,0.853 3.581,0 0,-6.8 -0.917,0 0,1.3 c 0,0.32 0.021,0.64 0.021,0.64 l -0.042,0 c 0,0 -1.791,-2.196 -5.095,-2.196 -4.157,0 -7.311,3.389 -7.311,7.717 C -7.439,-3.411 -4.221,0 0,0"
             style="fill:#ffffff;fill-opacity:1;fill-rule:nonzero;stroke:none"
             id="path44"
             inkscape:connector-curvature="0" /></g><g
           id="g46"
           transform="translate(141.0596,723.895)"
           style="fill:#ffffff"><path
             d="m 0,0 -5.564,0 0,0.853 12.044,0 0,-0.853 -5.563,0 0,-14.069 -0.917,0 L 0,0 z"
             style="fill:#ffffff;fill-opacity:1;fill-rule:nonzero;stroke:none"
             id="path48"
             inkscape:connector-curvature="0" /></g><g
           id="g50"
           transform="translate(150.0107,724.7476)"
           style="fill:#ffffff"><path
             d="m 0,0 0.917,0 0,-7.013 9.464,0 0,7.013 0.917,0 0,-14.921 -0.917,0 0,7.055 -9.464,0 0,-7.055 -0.917,0 L 0,0 z"
             style="fill:#ffffff;fill-opacity:1;fill-rule:nonzero;stroke:none"
             id="path52"
             inkscape:connector-curvature="0" /></g><g
           id="g54"
           transform="translate(165.9106,724.7476)"
           style="fill:#ffffff"><path
             d="m 0,0 8.164,0 0,-0.853 -7.247,0 0,-6.117 5.947,0 0,-0.853 -5.947,0 0,-6.246 7.652,0 0,-0.852 -8.569,0 L 0,0 z"
             style="fill:#ffffff;fill-opacity:1;fill-rule:nonzero;stroke:none"
             id="path56"
             inkscape:connector-curvature="0" /></g><g
           id="g58"
           transform="translate(183.9849,724.7476)"
           style="fill:#ffffff"><path
             d="m 0,0 0.853,0 8.505,-11.703 c 0.49,-0.682 1.215,-1.876 1.215,-1.876 l 0.043,0 c 0,0 -0.107,1.13 -0.107,1.876 l 0,11.703 0.917,0 0,-14.921 -0.853,0 -8.505,11.702 c -0.491,0.682 -1.215,1.876 -1.215,1.876 l -0.043,0 c 0,0 0.107,-1.13 0.107,-1.876 l 0,-11.702 -0.917,0 L 0,0 z"
             style="fill:#ffffff;fill-opacity:1;fill-rule:nonzero;stroke:none"
             id="path60"
             inkscape:connector-curvature="0" /></g><g
           id="g62"
           transform="translate(200.0127,724.7476)"
           style="fill:#ffffff"><path
             d="m 0,0 8.164,0 0,-0.853 -7.247,0 0,-6.117 5.947,0 0,-0.853 -5.947,0 0,-6.246 7.652,0 0,-0.852 -8.569,0 L 0,0 z"
             style="fill:#ffffff;fill-opacity:1;fill-rule:nonzero;stroke:none"
             id="path64"
             inkscape:connector-curvature="0" /></g><g
           id="g66"
           transform="translate(215.6152,723.895)"
           style="fill:#ffffff"><path
             d="m 0,0 -5.564,0 0,0.853 12.044,0 0,-0.853 -5.563,0 0,-14.069 -0.917,0 L 0,0 z"
             style="fill:#ffffff;fill-opacity:1;fill-rule:nonzero;stroke:none"
             id="path68"
             inkscape:connector-curvature="0" /></g></g><g
         id="g3082"
         style="fill:#ffffff"><g
           id="g138"
           transform="translate(196.2578,771.4268)"
           style="fill:#ffffff"><path
             d="m 0,0 8.783,0 c 2.581,0 4.529,0.734 5.952,2.239 1.442,1.532 2.143,3.622 2.143,6.389 0,2.736 -0.686,4.769 -2.094,6.224 -1.401,1.469 -3.314,2.178 -5.849,2.178 L 0,17.03 0,0 z m 29.296,-22.005 2.376,0 0,-9.482 -5.2,0 c -2.491,0 -4.259,0.286 -5.406,0.879 -1.32,0.673 -2.467,1.993 -3.504,4.04 l -7.49,14.865 C 9.249,-10.229 7.883,-9.52 5.804,-9.52 l -5.804,0 0,-21.967 -10.588,0 0,48.517 -5.082,0 0,9.482 25.483,0 c 5.262,0 9.579,-1.583 12.836,-4.699 3.349,-3.212 5.049,-7.544 5.049,-12.881 0,-4.489 -1.292,-8.307 -3.838,-11.349 -1.444,-1.743 -3.078,-3.032 -4.864,-3.85 0.35,-0.433 0.667,-0.927 0.948,-1.477 l 6.652,-13.226 c 0.339,-0.694 1.243,-1.035 2.7,-1.035 m -55.17,48.517 -38.012,0 c -2.16,0 -3.676,-0.469 -4.643,-1.436 -0.965,-0.968 -1.434,-2.483 -1.434,-4.641 l 0,-8.641 9.71,0 0,4.897 c 0,0.187 0.025,0.281 0.02,0.301 0.036,0.013 0.134,0.038 0.319,0.038 l 9.74,0 0,-48.517 10.589,0 0,48.517 9.737,0 c 0.188,0 0.279,-0.03 0.304,-0.02 0.013,-0.038 0.038,-0.132 0.038,-0.319 l 0,-4.897 9.71,0 0,8.641 c 0,2.155 -0.469,3.673 -1.434,4.641 -0.968,0.967 -2.488,1.436 -4.644,1.436 m -63.885,-6.384 0,-29.99 c 0,-0.585 0.012,-1.208 0.043,-1.867 -0.608,0.973 -1.188,1.862 -1.738,2.66 l -25.017,35.581 -9.201,0 0,-48.178 c 0,-0.188 -0.025,-0.284 -0.02,-0.302 -0.033,-0.012 -0.129,-0.037 -0.317,-0.037 l -4.741,0 0,-9.482 9.286,0 c 4.114,0 6.381,2.267 6.381,6.383 l 0,29.952 c 0,0.601 -0.013,1.241 -0.036,1.925 0.611,-0.993 1.206,-1.899 1.771,-2.72 l 25.056,-35.54 9.124,0 0,48.178 c 0,0.187 0.022,0.281 0.018,0.299 0.038,0.015 0.134,0.04 0.321,0.04 l 4.742,0 0,9.482 -9.213,0 c -4.167,0 -6.459,-2.267 -6.459,-6.384 m -65.442,6.384 20.98,0 0,-9.482 -5.385,0 0,-39.035 5.385,0 0,-9.482 -20.98,0 0,9.482 5.383,0 0,39.035 -5.383,0 0,9.482 z"
             style="fill:#ffffff;fill-opacity:1;fill-rule:nonzero;stroke:none"
             id="path140"
             inkscape:connector-curvature="0" /></g><g
           id="g142"
           transform="translate(427.4102,796.5581)"
           style="fill:#ffffff"><path
             d="m 0,0 0,-9.479 -2.867,0 c -1.009,0 -1.708,-0.403 -2.276,-1.302 l -13.731,-22.125 0,-25.091 -10.551,0 0,25.089 -13.81,22.129 c -0.563,0.897 -1.24,1.3 -2.195,1.3 l -2.946,0 0,9.479 4.971,0 c 2.211,0 3.835,-0.289 4.962,-0.882 1.272,-0.699 2.464,-2.014 3.671,-4.027 l 8.367,-13.905 c 0.775,-1.317 1.524,-2.66 2.239,-4.005 0.709,1.35 1.472,2.695 2.279,4.015 l 8.284,13.892 C -11.668,-1.652 -8.76,0 -4.97,0 L 0,0 z m -58.285,-32.776 -12.587,0 5.372,14.97 c 0.305,0.857 0.613,1.845 0.923,2.954 0.326,-1.109 0.645,-2.097 0.949,-2.956 l 5.343,-14.968 z M -41.855,-47.697 -59.496,0 -69.631,0 -87.282,-47.74 c -0.167,-0.491 -0.426,-0.778 -1.254,-0.778 l -2.487,0 0,-9.479 5.697,0 c 2.249,0 3.881,0.38 5.013,1.178 1.071,0.78 1.978,2.171 2.776,4.274 l 3.797,10.439 18.431,0 3.789,-10.424 c 0.738,-2.097 1.623,-3.501 2.721,-4.299 1.115,-0.788 2.751,-1.168 5.001,-1.168 l 5.771,0 0,9.479 -2.562,0 c -0.833,0 -1.089,0.287 -1.266,0.821 m -65.568,26.401 c -1.214,-1.297 -2.784,-1.931 -4.798,-1.931 l -9.433,0 0,13.748 9.241,0 c 2.181,0 3.837,-0.603 5.035,-1.824 1.16,-1.223 1.723,-2.84 1.723,-4.937 0,-2.126 -0.58,-3.78 -1.768,-5.056 m 1.806,-25.048 c -1.396,-1.462 -3.306,-2.174 -5.841,-2.174 l -9.857,0 c -0.169,0 -0.263,0.023 -0.296,0.023 l -0.005,-0.002 c -0.016,0.038 -0.038,0.134 -0.038,0.322 l 0,15.773 10.196,0 c 2.434,0 4.323,-0.724 5.78,-2.223 1.454,-1.48 2.163,-3.4 2.163,-5.873 0,-2.497 -0.683,-4.407 -2.102,-5.846 m 5.37,19.14 c 3.542,2.602 5.335,6.536 5.335,11.729 0,4.785 -1.682,8.635 -4.998,11.447 -3.169,2.673 -7.349,4.028 -12.425,4.028 l -24.989,0 0,-9.479 5.079,0 0,-42.134 c 0,-4.119 2.266,-6.384 6.386,-6.384 l 14.018,0 c 5.424,0 9.933,1.442 13.401,4.282 3.809,3.085 5.742,7.406 5.742,12.835 0,3.442 -0.871,6.513 -2.591,9.122 -1.295,1.981 -2.956,3.506 -4.958,4.554"
             style="fill:#ffffff;fill-opacity:1;fill-rule:nonzero;stroke:none"
             id="path144"
             inkscape:connector-curvature="0" /></g><g
           id="g146"
           transform="translate(258.7178,787.5908)"
           style="fill:#ffffff"><path
             d="m 0,0 c 10.031,0 18.193,-8.16 18.193,-18.191 0,-6.003 -2.933,-11.323 -7.427,-14.639 -2.298,-0.542 -4.588,-0.17 -6.586,1.104 -2.432,1.548 -4.805,6.351 -2.68,9.335 1.195,1.677 3.85,1.961 5.187,0.279 1.044,-1.302 0.457,-2.543 -0.06,-3.921 2.873,1.066 3.903,3.009 4.045,5.684 0.193,3.663 -2.726,6.986 -5.91,8.471 -6.018,2.801 -13.334,-0.231 -17.438,-5.173 -1.765,-2.123 -3.333,-5.694 -3.729,-8.952 -1.137,2.371 -1.788,5.013 -1.788,7.812 C -18.193,-8.16 -10.031,0 0,0 m 0,11.951 c -16.646,0 -30.145,-13.496 -30.145,-30.142 0,-16.65 13.499,-30.144 30.145,-30.144 16.648,0 30.145,13.494 30.145,30.144 0,16.646 -13.497,30.142 -30.145,30.142"
             style="fill:#ffffff;fill-opacity:1;fill-rule:nonzero;stroke:none"
             id="path148"
             inkscape:connector-curvature="0" /></g><g
           id="g150"
           transform="translate(260.126,766.1475)"
           style="fill:#ffffff"><path
             d="M 0,0 0.018,0.005 C 0.01,0 0,-0.005 -0.005,-0.015 L 0,0 z"
             style="fill:#ffffff;fill-opacity:1;fill-rule:nonzero;stroke:none"
             id="path152"
             inkscape:connector-curvature="0" /></g><g
           id="g154"
           transform="translate(264.4429,755.873)"
           style="fill:#ffffff"><path
             d="M 0,0 -0.066,0.051 C -0.021,0.03 0.028,0.013 0.073,-0.008 L 0,0 z"
             style="fill:#ffffff;fill-opacity:1;fill-rule:nonzero;stroke:none"
             id="path156"
             inkscape:connector-curvature="0" /></g></g></g></g></svg>